<svg width="122" height="121" viewBox="0 0 122 121" fill="none" xmlns="http://www.w3.org/2000/svg">
<g clip-path="url(#clip0_372_27327)">
<path opacity="0.1" d="M107.322 104.063C104.146 107.33 101.305 109.251 99.1292 110.701C77.9125 124.842 53.6595 120.766 46.161 119.373C34.0631 117.125 23.8511 115.54 15.0765 107.627C-4.86103 89.6469 -3.89122 52.1393 11.3435 28.905C13.15 26.1503 28.3616 3.64274 52.667 0.471238C53.2616 0.393725 53.7048 0.349308 54.0936 0.308374C57.8537 -0.0892069 81.1535 -2.18641 100.153 13.702C102.872 15.9765 107.249 20.0786 111.307 26.3353C126.147 49.2126 126.194 84.6447 107.322 104.063V104.063Z" fill="#A3AED0"/>
<g opacity="0.54">
<path opacity="0.2" d="M14.0011 8.07466C13.9871 6.82749 15.0813 5.8564 16.3203 6.01752C24.539 7.08659 52.7987 10.3783 76.1395 8.46789C77.204 8.38079 78.1324 9.18118 78.1943 10.2455L83.3047 97.644C83.3749 98.8424 82.4631 99.8723 81.263 99.9494C71.4454 100.58 31.0131 103.033 16.579 101.6C15.7003 101.513 15.0302 100.778 15.0202 99.8971L14.0011 8.07466Z" fill="#91B3FA"/>
<path opacity="0.2" d="M14.9796 10.2602C14.9661 9.06009 16.0192 8.12515 17.2115 8.28061C25.1205 9.30961 52.3162 12.4772 74.7779 10.6387C75.8023 10.5546 76.6957 11.3254 76.7555 12.3492L81.6735 96.4569C81.7411 97.61 80.8633 98.6011 79.7086 98.6756C70.2609 99.2831 31.3508 101.643 17.4606 100.264C16.6152 100.18 15.9704 99.4729 15.9608 98.6251L14.9796 10.2602Z" fill="#383874"/>
<path opacity="0.2" d="M22.3298 16.7087L23.2634 34.7414C23.2944 35.341 23.7826 35.8157 24.3837 35.8296C27.7307 35.9062 38.16 36.1061 44.0465 35.7691C44.7122 35.7307 45.2366 35.1903 45.2549 34.5249C45.3496 31.1418 45.5437 21.2955 44.7501 17.1838C44.6219 16.5197 44.0469 16.0355 43.3698 16.0154L23.5858 15.4276C22.8725 15.4062 22.2927 15.9972 22.3298 16.7087Z" fill="white"/>
<g opacity="0.3">
<path d="M71.8252 18.0218C71.8253 18.0219 71.8255 18.022 71.8257 18.022C72.213 18.0197 72.5208 17.7458 72.509 17.4132C72.4977 17.0805 72.1709 16.8044 71.7835 16.7992L50.0909 16.5262C49.7035 16.5214 49.4932 16.8153 49.6236 17.1794L49.7288 17.4729C49.8592 17.8369 50.2833 18.1335 50.6711 18.1313L71.8247 18.0216C71.8249 18.0216 71.8251 18.0217 71.8252 18.0218Z" fill="white"/>
</g>
<g opacity="0.3">
<path d="M50.1092 19.8882C50.1093 19.8882 50.1092 19.8884 50.1091 19.8884C49.7219 19.8837 49.5118 20.1776 49.6422 20.5416L49.7473 20.8351C49.8778 21.1991 50.3018 21.4957 50.6897 21.4935L71.8435 21.3838C72.2309 21.3816 72.5389 21.1077 72.5272 20.775C72.5158 20.4423 72.1891 20.1662 71.8017 20.161L50.1093 19.8879C50.1092 19.8879 50.1091 19.8881 50.1092 19.8882Z" fill="white"/>
</g>
<g opacity="0.3">
<path d="M50.1268 23.2997C50.1269 23.2997 50.1268 23.2999 50.1267 23.2999C49.7395 23.2952 49.5294 23.5891 49.6598 23.9531L49.7649 24.2466C49.8954 24.6106 50.3194 24.9072 50.7072 24.905L71.8611 24.7953C72.2485 24.7931 72.5565 24.5192 72.5447 24.1865C72.5334 23.8538 72.2066 23.5777 71.8192 23.5725L50.1269 23.2994C50.1268 23.2994 50.1267 23.2996 50.1268 23.2997Z" fill="white"/>
</g>
<g opacity="0.3">
<path d="M74.0539 41.2363C74.4413 41.2341 74.7392 40.9607 74.7152 40.628C74.6917 40.2953 74.3549 40.0222 73.9675 40.0214L23.15 39.8855C22.7626 39.8846 22.644 40.1302 22.887 40.4316L23.3049 40.9498C23.5479 41.2511 24.064 41.4963 24.4514 41.4941L74.0539 41.2363Z" fill="white"/>
</g>
<g opacity="0.3">
<path d="M23.1676 43.2473C22.7802 43.2464 22.6615 43.4921 22.9045 43.7934L23.3225 44.3116C23.5655 44.6129 24.0816 44.8581 24.469 44.8559L74.0714 44.5981C74.4588 44.596 74.7568 44.3225 74.7328 43.9898C74.7093 43.6571 74.3725 43.3841 73.9851 43.3832L23.1676 43.2473Z" fill="white"/>
</g>
<path opacity="0.3" d="M22.9675 48.8629C22.9677 48.8627 22.9678 48.8626 22.968 48.8626C24.1892 48.7629 26.4771 48.7076 27.7361 48.6837C28.2696 48.6737 28.7395 49.0321 28.8673 49.549C29.1155 50.5536 29.4602 52.2985 29.4275 54.1492C29.4179 54.7036 28.965 55.1482 28.4097 55.1451L23.7617 55.1194C23.1902 55.1164 22.7134 54.6827 22.6571 54.1148L22.2257 49.7527C22.1812 49.3017 22.5143 48.9003 22.967 48.8631C22.9672 48.8631 22.9674 48.863 22.9675 48.8629Z" fill="white"/>
<g opacity="0.3">
<path d="M31.5711 50.6102C31.1837 50.5963 30.9154 50.8972 30.9751 51.2795L31.0916 52.0268C31.1514 52.4091 31.517 52.72 31.9044 52.7183L43.1922 52.6595C43.5796 52.6573 43.8911 52.3394 43.8845 51.9527L43.881 51.7624C43.8741 51.3758 43.5517 51.0474 43.1643 51.0335L31.5706 50.6102H31.5711Z" fill="white"/>
</g>
<path opacity="0.3" d="M48.2878 48.7313C48.288 48.7311 48.2882 48.7311 48.2884 48.731C49.5095 48.6313 51.7974 48.576 53.0564 48.5521C53.5899 48.5421 54.0598 48.9005 54.1876 49.4174C54.4359 50.422 54.7805 52.1669 54.7478 54.0176C54.7382 54.572 54.2853 55.0166 53.73 55.0135L49.0821 54.9878C48.5105 54.9848 48.0337 54.5511 47.9774 53.9832L47.546 49.6212C47.5015 49.1701 47.8346 48.7687 48.2873 48.7315C48.2875 48.7315 48.2877 48.7314 48.2878 48.7313Z" fill="white"/>
<g opacity="0.3">
<path d="M56.8924 50.4786C56.505 50.4647 56.2366 50.7656 56.2964 51.1479L56.4129 51.8952C56.4727 52.2775 56.8383 52.5884 57.2257 52.5867L68.5135 52.5279C68.9009 52.5257 69.2124 52.2078 69.2058 51.8212L69.2023 51.6309C69.1954 51.2442 68.873 50.9158 68.4856 50.9019L56.8919 50.4786H56.8924Z" fill="white"/>
</g>
<g opacity="0.3">
<path opacity="0.6" d="M25.0607 61.3446C25.0607 61.3447 25.0608 61.3448 25.0609 61.3448C25.9615 61.2786 27.9188 61.07 28.847 61.0535C29.2406 61.0465 29.5869 61.2821 29.6812 61.6222C29.864 62.2828 29.847 63.6014 29.8221 64.819C29.8147 65.1835 29.4809 65.4761 29.0713 65.4744L25.644 65.4591C25.2226 65.4574 24.871 65.1721 24.83 64.7989L24.5137 61.9301C24.4809 61.6336 24.7269 61.3693 25.0605 61.3444C25.0606 61.3444 25.0607 61.3445 25.0607 61.3446Z" fill="white"/>
<g opacity="0.6">
<path d="M33.3691 63.7397C33.369 63.7399 33.3689 63.7401 33.369 63.7402C33.4956 64.2095 33.9252 64.5329 34.412 64.5264L74.0917 63.9825C74.5406 63.9764 74.8979 63.605 74.8857 63.1569C74.8739 62.7214 74.5166 62.3743 74.0804 62.3748L34.3967 62.4C33.6962 62.4005 33.1871 63.0639 33.3693 63.7392C33.3693 63.7394 33.3693 63.7396 33.3691 63.7397Z" fill="white"/>
</g>
<path opacity="0.6" d="M25.1086 70.5201C26.009 70.4539 27.9665 70.2453 28.8949 70.2288C29.2884 70.2218 29.6348 70.4574 29.729 70.7975C29.9118 71.4581 29.8948 72.7767 29.8699 73.9943C29.8625 74.3588 29.5288 74.6514 29.1191 74.6496L25.6919 74.6344C25.2704 74.6327 24.9188 74.3474 24.8778 73.9742L24.5615 71.1054C24.5288 70.8088 24.7748 70.5445 25.1086 70.5201Z" fill="white"/>
<g opacity="0.6">
<path d="M33.4179 72.9149C33.4178 72.915 33.4178 72.9152 33.4178 72.9154C33.5444 73.3847 33.9741 73.7081 34.4608 73.7016L74.1405 73.1577C74.5894 73.1516 74.9467 72.7801 74.9345 72.332C74.9227 71.8966 74.5654 71.5499 74.1292 71.5499L34.4456 71.5752C33.745 71.5756 33.236 72.2391 33.4181 72.9144C33.4181 72.9146 33.4181 72.9148 33.4179 72.9149Z" fill="white"/>
</g>
<path opacity="0.6" d="M25.1564 79.6954C26.0569 79.6292 28.0144 79.4206 28.9427 79.4041C29.3363 79.3971 29.6826 79.6327 29.7769 79.9728C29.9597 80.6334 29.9427 81.952 29.9178 83.1696C29.9104 83.534 29.5766 83.8267 29.167 83.8249L25.7397 83.8097C25.3183 83.8079 24.9667 83.5227 24.9257 83.1495L24.6094 80.2807C24.5766 79.9841 24.8227 79.7198 25.1564 79.6954Z" fill="white"/>
<g opacity="0.6">
<path d="M33.4658 82.0902C33.4657 82.0903 33.4656 82.0905 33.4657 82.0907C33.5923 82.56 34.0215 82.8834 34.5087 82.8769L74.1884 82.333C74.6373 82.3269 74.9946 81.9554 74.9824 81.5073C74.9706 81.0718 74.6133 80.7252 74.177 80.7252L34.4934 80.7505C33.7929 80.7509 33.2838 81.4144 33.4659 82.0897C33.466 82.0899 33.4659 82.0901 33.4658 82.0902Z" fill="white"/>
</g>
<path opacity="0.6" d="M25.2043 88.8702C26.1047 88.804 28.0622 88.5954 28.9906 88.5789C29.3841 88.5719 29.7305 88.8075 29.8247 89.1476C30.0075 89.8082 29.9905 91.1268 29.9656 92.3444C29.9582 92.7088 29.6245 93.0015 29.2148 92.9997L25.7876 92.9845C25.3661 92.9828 25.0145 92.6975 24.9735 92.3243L24.6572 89.4555C24.6245 89.1589 24.8705 88.8946 25.2043 88.8702Z" fill="white"/>
<g opacity="0.6">
<path d="M33.5127 91.2655C33.5125 91.2656 33.5125 91.2658 33.5125 91.266C33.6392 91.7353 34.0688 92.0587 34.5556 92.0522L74.2353 91.5083C74.6842 91.5022 75.0415 91.1307 75.0293 90.6826C75.0175 90.2471 74.6602 89.9005 74.2239 89.9005L34.5403 89.9258C33.8398 89.9262 33.3307 90.5897 33.5128 91.265C33.5129 91.2652 33.5128 91.2654 33.5127 91.2655Z" fill="white"/>
</g>
</g>
</g>
<path d="M56.4787 78.0042L14.0362 112.915C12.2562 114.379 12.1031 117.047 13.7037 118.704L13.9664 118.976C15.3829 120.443 17.7243 120.478 19.1845 119.055L58.7442 80.499L56.4787 78.0038V78.0042Z" fill="#7476A3"/>
<path opacity="0.5" d="M83.4538 83.0222C96.7362 78.3298 103.762 63.972 99.1454 50.953C94.5293 37.934 80.0197 31.1839 66.7374 35.8763C53.455 40.5686 46.4296 54.9265 51.0457 67.9455C55.6618 80.9645 70.1714 87.7145 83.4538 83.0222Z" fill="white"/>
<path opacity="0.6" d="M65.7957 33.2161C51.0161 38.4377 43.1991 54.4141 48.3357 68.9008C53.4722 83.3875 69.6178 90.8979 84.3975 85.6767C99.1771 80.455 106.994 64.4786 101.858 49.992C96.721 35.5057 80.5754 27.9948 65.7957 33.2161ZM83.0311 81.8233C70.4227 86.2776 56.6491 79.8702 52.2668 67.5117C47.8846 55.1531 54.5537 41.5234 67.1621 37.0691C79.7705 32.6147 93.5445 39.0221 97.9263 51.3807C102.309 63.7392 95.6395 77.3689 83.0311 81.8233Z" fill="#383874"/>
<path d="M51.4591 71.3241C51.4325 71.3241 51.4067 71.3093 51.3941 71.284C51.0957 70.694 50.8169 70.0834 50.5647 69.4703C50.5495 69.4333 50.5673 69.3906 50.6044 69.3754C50.6415 69.3597 50.6843 69.378 50.6995 69.415C50.9504 70.0247 51.2278 70.6317 51.5245 71.2183C51.5428 71.254 51.528 71.298 51.4922 71.3158C51.4818 71.321 51.4704 71.3237 51.4595 71.3237L51.4591 71.3241ZM49.0417 63.9246C49.0068 63.9246 48.9759 63.8994 48.9702 63.8637C48.6766 62.0783 48.5745 60.2558 48.6666 58.4469C48.9274 53.3245 50.7035 48.4085 53.8027 44.2307C56.9756 39.9531 61.3356 36.7441 66.411 34.9509C71.1842 33.2643 76.2937 32.9486 81.1876 34.0377C81.2269 34.0464 81.2518 34.0852 81.2426 34.1244C81.2339 34.1636 81.1951 34.1884 81.1558 34.1792C76.2889 33.0962 71.2069 33.4106 66.4595 35.0876C61.4115 36.8709 57.0755 40.0624 53.9196 44.3169C50.8374 48.4721 49.0714 53.3607 48.8118 58.4543C48.7202 60.2528 48.8219 62.0652 49.1137 63.8402C49.1203 63.8798 49.0932 63.9172 49.054 63.9238C49.05 63.9242 49.0461 63.9246 49.0422 63.9246H49.0417Z" fill="white"/>
<path d="M17.1493 118.862C15.5168 118.862 14.4593 118.294 14.006 117.172C13.5445 116.03 13.8939 114.696 14.8751 113.85L19.9174 109.507C19.9475 109.481 19.9937 109.484 20.0199 109.514C20.0461 109.545 20.0426 109.591 20.0125 109.617L14.9702 113.96C14.0361 114.765 13.7028 116.034 14.1408 117.118C14.5745 118.19 15.598 118.729 17.1999 118.717H17.2003C17.2405 118.717 17.2728 118.749 17.2732 118.789C17.2732 118.829 17.2414 118.862 17.2008 118.862C17.1838 118.862 17.1663 118.862 17.1489 118.862H17.1493Z" fill="white"/>
<path d="M21.5189 108.296C21.4983 108.296 21.4783 108.287 21.4639 108.27C21.4377 108.24 21.4412 108.194 21.4713 108.168L22.1248 107.605C22.1549 107.579 22.2012 107.582 22.2273 107.612C22.2535 107.643 22.25 107.689 22.2199 107.715L21.5664 108.278C21.5529 108.29 21.5359 108.296 21.5189 108.296Z" fill="white"/>
</g>
<defs>
<clipPath id="clip0_372_27327">
<rect width="122" height="121" fill="white"/>
</clipPath>
</defs>
</svg>
